name C:\Users\u0101727\Documents\MyRepositories\upper-imu-dc\OpenSim\subject0\MA\ResultsMA\grid_4nodes_9dim\angles_6.mot
datacolumns 10
datarows 56
range 650.01000000 650.56000000
endheader 
time	clav_prot	clav_elev	scapula_abduction	scapula_elevation	scapula_upward_rot	scapula_winging	plane_elv	shoulder_elv	axial_rot	
        650.01000000	        -50.00000000	         10.00000000	         -3.33333333	         10.00000000	         30.00000000	         10.00000000	         90.00000000	        100.00000000	        -90.00000000	
        650.02000000	        -38.33333333	         10.00000000	         -3.33333333	         10.00000000	         30.00000000	         10.00000000	         90.00000000	        100.00000000	        -90.00000000	
        650.03000000	        -26.66666667	         10.00000000	         -3.33333333	         10.00000000	         30.00000000	         10.00000000	         90.00000000	        100.00000000	        -90.00000000	
        650.04000000	        -15.00000000	         10.00000000	         -3.33333333	         10.00000000	         30.00000000	         10.00000000	         90.00000000	        100.00000000	        -90.00000000	
        650.05000000	        -50.00000000	         20.00000000	         -3.33333333	         10.00000000	         30.00000000	         10.00000000	         90.00000000	        100.00000000	        -90.00000000	
        650.06000000	        -38.33333333	         20.00000000	         -3.33333333	         10.00000000	         30.00000000	         10.00000000	         90.00000000	        100.00000000	        -90.00000000	
        650.07000000	        -26.66666667	         20.00000000	         -3.33333333	         10.00000000	         30.00000000	         10.00000000	         90.00000000	        100.00000000	        -90.00000000	
        650.08000000	        -15.00000000	         20.00000000	         -3.33333333	         10.00000000	         30.00000000	         10.00000000	         90.00000000	        100.00000000	        -90.00000000	
        650.09000000	        -50.00000000	        -10.00000000	         15.00000000	         10.00000000	         30.00000000	         10.00000000	         90.00000000	        100.00000000	        -90.00000000	
        650.10000000	        -38.33333333	        -10.00000000	         15.00000000	         10.00000000	         30.00000000	         10.00000000	         90.00000000	        100.00000000	        -90.00000000	
        650.11000000	        -26.66666667	        -10.00000000	         15.00000000	         10.00000000	         30.00000000	         10.00000000	         90.00000000	        100.00000000	        -90.00000000	
        650.12000000	        -15.00000000	        -10.00000000	         15.00000000	         10.00000000	         30.00000000	         10.00000000	         90.00000000	        100.00000000	        -90.00000000	
        650.13000000	        -50.00000000	          0.00000000	         15.00000000	         10.00000000	         30.00000000	         10.00000000	         90.00000000	        100.00000000	        -90.00000000	
        650.14000000	        -38.33333333	          0.00000000	         15.00000000	         10.00000000	         30.00000000	         10.00000000	         90.00000000	        100.00000000	        -90.00000000	
        650.15000000	        -26.66666667	          0.00000000	         15.00000000	         10.00000000	         30.00000000	         10.00000000	         90.00000000	        100.00000000	        -90.00000000	
        650.16000000	        -15.00000000	          0.00000000	         15.00000000	         10.00000000	         30.00000000	         10.00000000	         90.00000000	        100.00000000	        -90.00000000	
        650.17000000	        -50.00000000	         10.00000000	         15.00000000	         10.00000000	         30.00000000	         10.00000000	         90.00000000	        100.00000000	        -90.00000000	
        650.18000000	        -38.33333333	         10.00000000	         15.00000000	         10.00000000	         30.00000000	         10.00000000	         90.00000000	        100.00000000	        -90.00000000	
        650.19000000	        -26.66666667	         10.00000000	         15.00000000	         10.00000000	         30.00000000	         10.00000000	         90.00000000	        100.00000000	        -90.00000000	
        650.20000000	        -15.00000000	         10.00000000	         15.00000000	         10.00000000	         30.00000000	         10.00000000	         90.00000000	        100.00000000	        -90.00000000	
        650.21000000	        -50.00000000	         20.00000000	         15.00000000	         10.00000000	         30.00000000	         10.00000000	         90.00000000	        100.00000000	        -90.00000000	
        650.22000000	        -38.33333333	         20.00000000	         15.00000000	         10.00000000	         30.00000000	         10.00000000	         90.00000000	        100.00000000	        -90.00000000	
        650.23000000	        -26.66666667	         20.00000000	         15.00000000	         10.00000000	         30.00000000	         10.00000000	         90.00000000	        100.00000000	        -90.00000000	
        650.24000000	        -15.00000000	         20.00000000	         15.00000000	         10.00000000	         30.00000000	         10.00000000	         90.00000000	        100.00000000	        -90.00000000	
        650.25000000	        -50.00000000	        -10.00000000	        -40.00000000	        -10.00000000	         60.00000000	         10.00000000	         90.00000000	        100.00000000	        -90.00000000	
        650.26000000	        -38.33333333	        -10.00000000	        -40.00000000	        -10.00000000	         60.00000000	         10.00000000	         90.00000000	        100.00000000	        -90.00000000	
        650.27000000	        -26.66666667	        -10.00000000	        -40.00000000	        -10.00000000	         60.00000000	         10.00000000	         90.00000000	        100.00000000	        -90.00000000	
        650.28000000	        -15.00000000	        -10.00000000	        -40.00000000	        -10.00000000	         60.00000000	         10.00000000	         90.00000000	        100.00000000	        -90.00000000	
        650.29000000	        -50.00000000	          0.00000000	        -40.00000000	        -10.00000000	         60.00000000	         10.00000000	         90.00000000	        100.00000000	        -90.00000000	
        650.30000000	        -38.33333333	          0.00000000	        -40.00000000	        -10.00000000	         60.00000000	         10.00000000	         90.00000000	        100.00000000	        -90.00000000	
        650.31000000	        -26.66666667	          0.00000000	        -40.00000000	        -10.00000000	         60.00000000	         10.00000000	         90.00000000	        100.00000000	        -90.00000000	
        650.32000000	        -15.00000000	          0.00000000	        -40.00000000	        -10.00000000	         60.00000000	         10.00000000	         90.00000000	        100.00000000	        -90.00000000	
        650.33000000	        -50.00000000	         10.00000000	        -40.00000000	        -10.00000000	         60.00000000	         10.00000000	         90.00000000	        100.00000000	        -90.00000000	
        650.34000000	        -38.33333333	         10.00000000	        -40.00000000	        -10.00000000	         60.00000000	         10.00000000	         90.00000000	        100.00000000	        -90.00000000	
        650.35000000	        -26.66666667	         10.00000000	        -40.00000000	        -10.00000000	         60.00000000	         10.00000000	         90.00000000	        100.00000000	        -90.00000000	
        650.36000000	        -15.00000000	         10.00000000	        -40.00000000	        -10.00000000	         60.00000000	         10.00000000	         90.00000000	        100.00000000	        -90.00000000	
        650.37000000	        -50.00000000	         20.00000000	        -40.00000000	        -10.00000000	         60.00000000	         10.00000000	         90.00000000	        100.00000000	        -90.00000000	
        650.38000000	        -38.33333333	         20.00000000	        -40.00000000	        -10.00000000	         60.00000000	         10.00000000	         90.00000000	        100.00000000	        -90.00000000	
        650.39000000	        -26.66666667	         20.00000000	        -40.00000000	        -10.00000000	         60.00000000	         10.00000000	         90.00000000	        100.00000000	        -90.00000000	
        650.40000000	        -15.00000000	         20.00000000	        -40.00000000	        -10.00000000	         60.00000000	         10.00000000	         90.00000000	        100.00000000	        -90.00000000	
        650.41000000	        -50.00000000	        -10.00000000	        -21.66666667	        -10.00000000	         60.00000000	         10.00000000	         90.00000000	        100.00000000	        -90.00000000	
        650.42000000	        -38.33333333	        -10.00000000	        -21.66666667	        -10.00000000	         60.00000000	         10.00000000	         90.00000000	        100.00000000	        -90.00000000	
        650.43000000	        -26.66666667	        -10.00000000	        -21.66666667	        -10.00000000	         60.00000000	         10.00000000	         90.00000000	        100.00000000	        -90.00000000	
        650.44000000	        -15.00000000	        -10.00000000	        -21.66666667	        -10.00000000	         60.00000000	         10.00000000	         90.00000000	        100.00000000	        -90.00000000	
        650.45000000	        -50.00000000	          0.00000000	        -21.66666667	        -10.00000000	         60.00000000	         10.00000000	         90.00000000	        100.00000000	        -90.00000000	
        650.46000000	        -38.33333333	          0.00000000	        -21.66666667	        -10.00000000	         60.00000000	         10.00000000	         90.00000000	        100.00000000	        -90.00000000	
        650.47000000	        -26.66666667	          0.00000000	        -21.66666667	        -10.00000000	         60.00000000	         10.00000000	         90.00000000	        100.00000000	        -90.00000000	
        650.48000000	        -15.00000000	          0.00000000	        -21.66666667	        -10.00000000	         60.00000000	         10.00000000	         90.00000000	        100.00000000	        -90.00000000	
        650.49000000	        -50.00000000	         10.00000000	        -21.66666667	        -10.00000000	         60.00000000	         10.00000000	         90.00000000	        100.00000000	        -90.00000000	
        650.50000000	        -38.33333333	         10.00000000	        -21.66666667	        -10.00000000	         60.00000000	         10.00000000	         90.00000000	        100.00000000	        -90.00000000	
        650.51000000	        -26.66666667	         10.00000000	        -21.66666667	        -10.00000000	         60.00000000	         10.00000000	         90.00000000	        100.00000000	        -90.00000000	
        650.52000000	        -15.00000000	         10.00000000	        -21.66666667	        -10.00000000	         60.00000000	         10.00000000	         90.00000000	        100.00000000	        -90.00000000	
        650.53000000	        -50.00000000	         20.00000000	        -21.66666667	        -10.00000000	         60.00000000	         10.00000000	         90.00000000	        100.00000000	        -90.00000000	
        650.54000000	        -38.33333333	         20.00000000	        -21.66666667	        -10.00000000	         60.00000000	         10.00000000	         90.00000000	        100.00000000	        -90.00000000	
        650.55000000	        -26.66666667	         20.00000000	        -21.66666667	        -10.00000000	         60.00000000	         10.00000000	         90.00000000	        100.00000000	        -90.00000000	
        650.56000000	        -15.00000000	         20.00000000	        -21.66666667	        -10.00000000	         60.00000000	         10.00000000	         90.00000000	        100.00000000	        -90.00000000	
